<svg xmlns="http://www.w3.org/2000/svg" version="1.1" xmlns:xlink="http://www.w3.org/1999/xlink" xmlns:svgjs="http://svgjs.dev/svgjs" width="1500" height="1500" viewBox="0 0 1500 1500"><rect width="1500" height="1500" fill="#110f10"></rect><g transform="matrix(0.6666666666666666,0,0,0.6666666666666666,249.39393939393938,480.6908504895125)"><svg viewBox="0 0 396 213" data-background-color="#110f10" preserveAspectRatio="xMidYMid meet" height="806" width="1500" xmlns="http://www.w3.org/2000/svg" xmlns:xlink="http://www.w3.org/1999/xlink"><g id="tight-bounds" transform="matrix(1,0,0,1,0.2400000000000091,0.25468147469078417)"><svg viewBox="0 0 395.52 212.49063705061843" height="212.49063705061843" width="395.52"><g><svg viewBox="0 0 395.52 212.49063705061843" height="212.49063705061843" width="395.52"><g><svg viewBox="0 0 395.52 212.49063705061843" height="212.49063705061843" width="395.52"><g id="textblocktransform"><svg viewBox="0 0 395.52 212.49063705061843" height="212.49063705061843" width="395.52" id="textblock"><g><svg viewBox="0 0 395.52 127.26157335223245" height="127.26157335223245" width="395.52"><g transform="matrix(1,0,0,1,0,0)"><svg width="395.52" viewBox="3 -34.55 141.09 45.4" height="127.26157335223245" data-palette-color="#cef196"><path d="M3-34.55L20.15-34.55 19.5-29.8 9.35-29.8 9.35-19.9 18.2-19.9 18.2-15.2 9.35-15.2 9.35-4.8 20.15-4.8 20.15 0 3 0 3-34.55ZM36.9-26.45L42.95-26.45 36.05 0 28.8 0 21.7-26.45 28.05-26.45 32.4-4.95 36.9-26.45ZM64.7-13.85Q64.7-13.4 64.55-11.3L64.55-11.3 50.9-11.3Q51.1-7.2 52.32-5.58 53.55-3.95 55.8-3.95L55.8-3.95Q57.35-3.95 58.6-4.48 59.85-5 61.3-6.15L61.3-6.15 63.85-2.65Q60.35 0.75 55.45 0.75L55.45 0.75Q50.25 0.75 47.47-2.85 44.7-6.45 44.7-13L44.7-13Q44.7-19.55 47.35-23.35 50-27.15 54.85-27.15L54.85-27.15Q59.5-27.15 62.1-23.78 64.7-20.4 64.7-13.85L64.7-13.85ZM58.7-15.3L58.7-15.65Q58.7-19.4 57.8-21.13 56.9-22.85 54.9-22.85L54.9-22.85Q53.05-22.85 52.07-21.18 51.1-19.5 50.9-15.3L50.9-15.3 58.7-15.3ZM81.34-27.15Q84.19-27.15 85.84-25.1 87.49-23.05 87.49-19.6L87.49-19.6 87.49 0 81.34 0 81.34-18.9Q81.34-20.8 80.82-21.63 80.29-22.45 79.29-22.45L79.29-22.45Q77.19-22.45 75.14-18.5L75.14-18.5 75.14 0 68.99 0 68.99-26.45 74.34-26.45 74.79-23Q76.14-25.1 77.67-26.13 79.19-27.15 81.34-27.15L81.34-27.15ZM104.19-5L106.34-1.2Q103.89 0.75 100.59 0.75L100.59 0.75Q97.14 0.75 95.34-1.23 93.54-3.2 93.54-6.6L93.54-6.6 93.54-22 90.44-22 90.44-26.45 93.54-26.45 93.54-32.3 99.69-33.05 99.69-26.45 104.69-26.45 104.09-22 99.69-22 99.69-6.6Q99.69-4.2 101.74-4.2L101.74-4.2Q102.39-4.2 102.89-4.38 103.39-4.55 104.19-5L104.19-5ZM120.54-27.1Q121.69-27.1 122.59-26.75L122.59-26.75 121.59-20.85Q120.59-21.1 119.74-21.1L119.74-21.1Q117.84-21.1 116.74-19.45 115.64-17.8 115.04-14.55L115.04-14.55 115.04 0 108.89 0 108.89-26.45 114.24-26.45 114.69-21.85Q116.54-27.1 120.54-27.1L120.54-27.1ZM144.09-26.45L137.09 0.1Q135.79 4.9 132.89 7.65 129.99 10.4 125.14 10.85L125.14 10.85 124.44 6.5Q127.59 5.85 129.16 4.42 130.74 3 131.64 0L131.64 0 129.34 0 122.64-26.45 128.89-26.45 133.29-4.1 137.99-26.45 144.09-26.45Z" opacity="1" transform="matrix(1,0,0,1,0,0)" fill="#cef196" class="wordmark-text-0" data-fill-palette-color="primary" id="text-0"></path></svg></g></svg></g><g transform="matrix(1,0,0,1,0,157.30497654293407)"><svg viewBox="0 0 395.52 55.18566050768435" height="55.18566050768435" width="395.52"><g transform="matrix(1,0,0,1,0,0)"><svg width="395.52" viewBox="3 -39.65 289.52 40.4" height="55.18566050768435" data-palette-color="#cef196"><path d="M10.9-34.55Q17.15-34.55 20.43-31.78 23.7-29 23.7-23.6L23.7-23.6Q23.7-17.85 20.48-15 17.25-12.15 11.35-12.15L11.35-12.15 9.35-12.15 9.35 0 3 0 3-34.55 10.9-34.55ZM11-16.9Q14.25-16.9 15.7-18.4 17.15-19.9 17.15-23.55L17.15-23.55Q17.15-26.85 15.7-28.35 14.25-29.85 11.05-29.85L11.05-29.85 9.35-29.85 9.35-16.9 11-16.9ZM36.7-27.15Q41.7-27.15 44.47-23.65 47.25-20.15 47.25-13.25L47.25-13.25Q47.25-6.65 44.45-2.95 41.65 0.75 36.7 0.75L36.7 0.75Q31.75 0.75 28.95-2.88 26.15-6.5 26.15-13.25L26.15-13.25Q26.15-19.95 28.95-23.55 31.75-27.15 36.7-27.15L36.7-27.15ZM36.7-22.5Q34.55-22.5 33.55-20.38 32.55-18.25 32.55-13.25L32.55-13.25Q32.55-8.2 33.55-6.08 34.55-3.95 36.7-3.95L36.7-3.95Q38.85-3.95 39.85-6.08 40.85-8.2 40.85-13.25L40.85-13.25Q40.85-18.3 39.85-20.4 38.85-22.5 36.7-22.5L36.7-22.5ZM62.95-5L65.1-1.2Q62.65 0.75 59.35 0.75L59.35 0.75Q55.9 0.75 54.1-1.23 52.3-3.2 52.3-6.6L52.3-6.6 52.3-22 49.2-22 49.2-26.45 52.3-26.45 52.3-32.3 58.45-33.05 58.45-26.45 63.45-26.45 62.85-22 58.45-22 58.45-6.6Q58.45-4.2 60.5-4.2L60.5-4.2Q61.15-4.2 61.65-4.38 62.15-4.55 62.95-5L62.95-5ZM86.49-13.85Q86.49-13.4 86.34-11.3L86.34-11.3 72.69-11.3Q72.89-7.2 74.12-5.58 75.34-3.95 77.59-3.95L77.59-3.95Q79.14-3.95 80.39-4.48 81.64-5 83.09-6.15L83.09-6.15 85.64-2.65Q82.14 0.75 77.24 0.75L77.24 0.75Q72.04 0.75 69.27-2.85 66.49-6.45 66.49-13L66.49-13Q66.49-19.55 69.14-23.35 71.79-27.15 76.64-27.15L76.64-27.15Q81.29-27.15 83.89-23.78 86.49-20.4 86.49-13.85L86.49-13.85ZM80.49-15.3L80.49-15.65Q80.49-19.4 79.59-21.13 78.69-22.85 76.69-22.85L76.69-22.85Q74.84-22.85 73.87-21.18 72.89-19.5 72.69-15.3L72.69-15.3 80.49-15.3ZM103.14-27.15Q105.99-27.15 107.64-25.1 109.29-23.05 109.29-19.6L109.29-19.6 109.29 0 103.14 0 103.14-18.9Q103.14-20.8 102.62-21.63 102.09-22.45 101.09-22.45L101.09-22.45Q98.99-22.45 96.94-18.5L96.94-18.5 96.94 0 90.79 0 90.79-26.45 96.14-26.45 96.59-23Q97.94-25.1 99.47-26.13 100.99-27.15 103.14-27.15L103.14-27.15ZM125.99-5L128.14-1.2Q125.69 0.75 122.39 0.75L122.39 0.75Q118.94 0.75 117.14-1.23 115.34-3.2 115.34-6.6L115.34-6.6 115.34-22 112.24-22 112.24-26.45 115.34-26.45 115.34-32.3 121.49-33.05 121.49-26.45 126.49-26.45 125.89-22 121.49-22 121.49-6.6Q121.49-4.2 123.54-4.2L123.54-4.2Q124.19-4.2 124.69-4.38 125.19-4.55 125.99-5L125.99-5ZM130.69-26.45L136.84-26.45 136.84 0 130.69 0 130.69-26.45ZM133.74-39.65Q135.39-39.65 136.41-38.6 137.44-37.55 137.44-35.9L137.44-35.9Q137.44-34.3 136.41-33.25 135.39-32.2 133.74-32.2L133.74-32.2Q132.09-32.2 131.06-33.25 130.04-34.3 130.04-35.9L130.04-35.9Q130.04-37.55 131.06-38.6 132.09-39.65 133.74-39.65L133.74-39.65ZM159.43-6.4Q159.43-5.1 159.78-4.48 160.13-3.85 160.93-3.45L160.93-3.45 159.68 0.65Q157.63 0.4 156.41-0.45 155.18-1.3 154.58-3.05L154.58-3.05Q152.28 0.75 148.13 0.75L148.13 0.75Q144.83 0.75 142.88-1.48 140.93-3.7 140.93-7.4L140.93-7.4Q140.93-11.7 143.61-13.95 146.28-16.2 151.38-16.2L151.38-16.2 153.43-16.2 153.43-18.05Q153.43-20.55 152.56-21.58 151.68-22.6 149.73-22.6L149.73-22.6Q147.38-22.6 143.88-21.3L143.88-21.3 142.48-25.3Q144.48-26.2 146.63-26.68 148.78-27.15 150.73-27.15L150.73-27.15Q159.43-27.15 159.43-18.35L159.43-18.35 159.43-6.4ZM149.78-3.7Q152.18-3.7 153.43-7L153.43-7 153.43-12.55 151.98-12.55Q149.43-12.55 148.26-11.4 147.08-10.25 147.08-7.85L147.08-7.85Q147.08-5.8 147.78-4.75 148.48-3.7 149.78-3.7L149.78-3.7ZM170.83 0.75Q168.13 0.75 166.56-0.93 164.98-2.6 164.98-5.4L164.98-5.4 164.98-37.05 171.13-37.7 171.13-5.65Q171.13-5 171.43-4.6 171.73-4.2 172.33-4.2L172.33-4.2Q172.68-4.2 173.01-4.3 173.33-4.4 173.43-4.4L173.43-4.4 174.63-0.2Q172.93 0.75 170.83 0.75L170.83 0.75ZM206.38-13.85Q206.38-13.4 206.23-11.3L206.23-11.3 192.58-11.3Q192.78-7.2 194-5.58 195.23-3.95 197.48-3.95L197.48-3.95Q199.03-3.95 200.28-4.48 201.53-5 202.98-6.15L202.98-6.15 205.53-2.65Q202.03 0.75 197.13 0.75L197.13 0.75Q191.93 0.75 189.15-2.85 186.38-6.45 186.38-13L186.38-13Q186.38-19.55 189.03-23.35 191.68-27.15 196.53-27.15L196.53-27.15Q201.18-27.15 203.78-23.78 206.38-20.4 206.38-13.85L206.38-13.85ZM200.38-15.3L200.38-15.65Q200.38-19.4 199.48-21.13 198.58-22.85 196.58-22.85L196.58-22.85Q194.73-22.85 193.75-21.18 192.78-19.5 192.58-15.3L192.58-15.3 200.38-15.3ZM223.07-26.45L229.12-26.45 222.22 0 214.97 0 207.87-26.45 214.22-26.45 218.57-4.95 223.07-26.45ZM250.87-13.85Q250.87-13.4 250.72-11.3L250.72-11.3 237.07-11.3Q237.27-7.2 238.5-5.58 239.72-3.95 241.97-3.95L241.97-3.95Q243.52-3.95 244.77-4.48 246.02-5 247.47-6.15L247.47-6.15 250.02-2.65Q246.52 0.75 241.62 0.75L241.62 0.75Q236.42 0.75 233.65-2.85 230.87-6.45 230.87-13L230.87-13Q230.87-19.55 233.52-23.35 236.17-27.15 241.02-27.15L241.02-27.15Q245.67-27.15 248.27-23.78 250.87-20.4 250.87-13.85L250.87-13.85ZM244.87-15.3L244.87-15.65Q244.87-19.4 243.97-21.13 243.07-22.85 241.07-22.85L241.07-22.85Q239.22-22.85 238.25-21.18 237.27-19.5 237.07-15.3L237.07-15.3 244.87-15.3ZM267.52-27.15Q270.37-27.15 272.02-25.1 273.67-23.05 273.67-19.6L273.67-19.6 273.67 0 267.52 0 267.52-18.9Q267.52-20.8 266.99-21.63 266.47-22.45 265.47-22.45L265.47-22.45Q263.37-22.45 261.32-18.5L261.32-18.5 261.32 0 255.17 0 255.17-26.45 260.52-26.45 260.97-23Q262.32-25.1 263.84-26.13 265.37-27.15 267.52-27.15L267.52-27.15ZM290.37-5L292.52-1.2Q290.07 0.75 286.77 0.75L286.77 0.75Q283.32 0.75 281.52-1.23 279.72-3.2 279.72-6.6L279.72-6.6 279.72-22 276.62-22 276.62-26.45 279.72-26.45 279.72-32.3 285.87-33.05 285.87-26.45 290.87-26.45 290.27-22 285.87-22 285.87-6.6Q285.87-4.2 287.92-4.2L287.92-4.2Q288.57-4.2 289.07-4.38 289.57-4.55 290.37-5L290.37-5Z" opacity="1" transform="matrix(1,0,0,1,0,0)" fill="#cef196" class="slogan-text-1" data-fill-palette-color="secondary" id="text-1"></path></svg></g></svg></g></svg></g></svg></g><g></g></svg></g><defs></defs></svg><rect width="395.52" height="212.49063705061843" fill="none" stroke="none" visibility="hidden"></rect></g></svg></g></svg>